<svg width="30" height="29" viewBox="0 0 30 29" fill="none" xmlns="http://www.w3.org/2000/svg">
<path d="M14.991 3.5625C9.0982 3.5625 4.30273 8.35797 4.30273 14.2508C4.30273 20.1436 9.0982 24.939 14.991 24.939C20.8838 24.939 25.6793 20.1436 25.6793 14.2508C25.6793 8.35797 20.8838 3.5625 14.991 3.5625ZM14.991 5.34388C19.921 5.34388 23.8979 9.3208 23.8979 14.2508C23.9 16.383 23.1354 18.445 21.7436 20.0604C20.3518 21.6757 18.4255 22.7368 16.3163 23.0499V16.848H18.853L19.2512 14.2712H16.3163V12.864C16.3163 11.7951 16.6682 10.8448 17.6684 10.8448H19.2761V8.59667C18.9937 8.55837 18.3961 8.47554 17.2667 8.47554C14.9082 8.47554 13.5258 9.72072 13.5258 12.5585V14.2712H11.1014V16.848H13.5258V23.0276C11.4458 22.6853 9.55533 21.6145 8.1921 20.0067C6.82886 18.3989 6.0817 16.3587 6.08411 14.2508C6.08411 9.3208 10.061 5.34388 14.991 5.34388Z" fill="#FF5C00"/>
</svg>
