<svg width="25" height="25" viewBox="0 0 25 25" fill="none" xmlns="http://www.w3.org/2000/svg">
<path fill-rule="evenodd" clip-rule="evenodd" d="M8.04951 1.21408C9.23359 1.15957 9.61112 1.14746 12.6273 1.14746C15.6436 1.14746 16.0211 1.16058 17.2042 1.21408C18.3873 1.26759 19.1948 1.45635 19.9014 1.72991C20.6413 2.00953 21.3126 2.44662 21.8678 3.01191C22.4331 3.56609 22.8692 4.23637 23.1478 4.9773C23.4224 5.68391 23.6101 6.49147 23.6646 7.67252C23.7192 8.85862 23.7313 9.23616 23.7313 12.2514C23.7313 15.2676 23.7181 15.6451 23.6646 16.8292C23.6111 18.0103 23.4224 18.8178 23.1478 19.5244C22.8692 20.2655 22.4324 20.9369 21.8678 21.4918C21.3126 22.0571 20.6413 22.4932 19.9014 22.7718C19.1948 23.0464 18.3873 23.2342 17.2062 23.2887C16.0211 23.3432 15.6436 23.3553 12.6273 23.3553C9.61112 23.3553 9.23359 23.3422 8.04951 23.2887C6.86846 23.2352 6.0609 23.0464 5.35429 22.7718C4.61327 22.4932 3.94189 22.0564 3.38688 21.4918C2.82197 20.9373 2.38481 20.2663 2.10589 19.5254C1.83233 18.8188 1.64457 18.0113 1.59006 16.8302C1.53555 15.6441 1.52344 15.2666 1.52344 12.2514C1.52344 9.23515 1.53656 8.85761 1.59006 7.67454C1.64356 6.49147 1.83233 5.68391 2.10589 4.9773C2.38523 4.23645 2.82272 3.5654 3.38789 3.0109C3.94211 2.44612 4.61282 2.00897 5.35328 1.72991C6.05989 1.45635 6.86745 1.26859 8.0485 1.21408H8.04951ZM17.1143 3.21279C15.9434 3.15929 15.5921 3.14818 12.6273 3.14818C9.66261 3.14818 9.31132 3.15929 8.14036 3.21279C7.05722 3.26225 6.46973 3.44294 6.07806 3.59537C5.56021 3.79726 5.18975 4.0365 4.80111 4.42513C4.43271 4.78354 4.14919 5.21985 3.97135 5.70208C3.81892 6.09375 3.63823 6.68125 3.58877 7.76438C3.53526 8.93534 3.52416 9.28663 3.52416 12.2514C3.52416 15.2161 3.53526 15.5674 3.58877 16.7384C3.63823 17.8215 3.81892 18.409 3.97135 18.8007C4.14901 19.2822 4.43266 19.7193 4.80111 20.0776C5.15946 20.4461 5.59655 20.7297 6.07806 20.9074C6.46973 21.0598 7.05722 21.2405 8.14036 21.29C9.31132 21.3435 9.6616 21.3546 12.6273 21.3546C15.5931 21.3546 15.9434 21.3435 17.1143 21.29C18.1975 21.2405 18.785 21.0598 19.1766 20.9074C19.6945 20.7055 20.065 20.4663 20.4536 20.0776C20.822 19.7193 21.1057 19.2822 21.2834 18.8007C21.4358 18.409 21.6165 17.8215 21.6659 16.7384C21.7194 15.5674 21.7305 15.2161 21.7305 12.2514C21.7305 9.28663 21.7194 8.93534 21.6659 7.76438C21.6165 6.68125 21.4358 6.09375 21.2834 5.70208C21.0815 5.18424 20.8422 4.81377 20.4536 4.42513C20.0952 4.05676 19.6589 3.77324 19.1766 3.59537C18.785 3.44294 18.1975 3.26225 17.1143 3.21279ZM11.2091 15.6744C12.0011 16.0041 12.8831 16.0486 13.7044 15.8003C14.5256 15.552 15.2351 15.0263 15.7118 14.3129C16.1885 13.5996 16.4027 12.7428 16.3179 11.8891C16.2331 11.0353 15.8546 10.2375 15.2469 9.63186C14.8595 9.24471 14.3911 8.94827 13.8754 8.76388C13.3597 8.57949 12.8095 8.51174 12.2644 8.5655C11.7194 8.61925 11.1931 8.79319 10.7233 9.07478C10.2536 9.35637 9.85212 9.7386 9.54783 10.194C9.24355 10.6493 9.04401 11.1665 8.96358 11.7083C8.88315 12.25 8.92384 12.8028 9.08272 13.327C9.24159 13.8511 9.5147 14.3335 9.88238 14.7394C10.2501 15.1453 10.7032 15.4646 11.2091 15.6744ZM8.59158 8.21561C9.12157 7.68562 9.75075 7.26521 10.4432 6.97839C11.1357 6.69156 11.8778 6.54394 12.6273 6.54394C13.3769 6.54394 14.119 6.69156 14.8115 6.97839C15.504 7.26521 16.1331 7.68562 16.6631 8.21561C17.1931 8.74559 17.6135 9.37477 17.9003 10.0672C18.1872 10.7597 18.3348 11.5019 18.3348 12.2514C18.3348 13.0009 18.1872 13.7431 17.9003 14.4355C17.6135 15.128 17.1931 15.7572 16.6631 16.2871C15.5928 17.3575 14.1411 17.9588 12.6273 17.9588C11.1136 17.9588 9.66193 17.3575 8.59158 16.2871C7.52123 15.2168 6.91991 13.7651 6.91991 12.2514C6.91991 10.7377 7.52123 9.28596 8.59158 8.21561ZM19.6006 7.39392C19.7319 7.27003 19.8371 7.12104 19.9098 6.95579C19.9825 6.79054 20.0214 6.61237 20.024 6.43184C20.0266 6.25132 19.993 6.07209 19.9251 5.90479C19.8573 5.73749 19.7565 5.5855 19.6288 5.45784C19.5012 5.33017 19.3492 5.22942 19.1819 5.16154C19.0146 5.09367 18.8354 5.06005 18.6548 5.06268C18.4743 5.06532 18.2961 5.10414 18.1309 5.17687C17.9656 5.24959 17.8166 5.35473 17.6928 5.48606C17.4518 5.74148 17.3199 6.08075 17.325 6.43184C17.3301 6.78294 17.4719 7.11822 17.7202 7.3665C17.9685 7.61479 18.3037 7.75654 18.6548 7.76166C19.0059 7.76678 19.3452 7.63486 19.6006 7.39392Z" fill="#FF5C00"/>
</svg>
