<svg width="159" height="159" viewBox="0 0 159 159" fill="none" xmlns="http://www.w3.org/2000/svg">
<g clip-path="url(#clip0_1_29)">
<path d="M34.9403 69.5625C41.8193 69.5625 48.5439 71.6024 54.2637 75.4242C59.9834 79.246 64.4414 84.6781 67.0739 91.0335C69.7064 97.389 70.3952 104.382 69.0532 111.129C67.7111 117.876 64.3986 124.074 59.5343 128.938C54.6701 133.802 48.4726 137.115 41.7257 138.457C34.9788 139.799 27.9855 139.11 21.63 136.477C15.2746 133.845 9.84251 129.387 6.0207 123.667C2.19888 117.947 0.159 111.223 0.159 104.344L0 99.375C0 80.9259 7.32888 63.2324 20.3744 50.1869C33.4199 37.1414 51.1134 29.8125 69.5625 29.8125V49.6875C63.0346 49.67 56.5679 50.9467 50.5365 53.4439C44.5051 55.941 39.0285 59.6091 34.4235 64.236C32.6337 66.0224 30.9826 67.9426 29.4846 69.9799C31.2634 69.7016 33.0819 69.5526 34.9303 69.5526L34.9403 69.5625ZM124.378 69.5625C131.257 69.5625 137.981 71.6024 143.701 75.4242C149.421 79.246 153.879 84.6781 156.511 91.0335C159.144 97.389 159.833 104.382 158.491 111.129C157.149 117.876 153.836 124.074 148.972 128.938C144.108 133.802 137.91 137.115 131.163 138.457C124.416 139.799 117.423 139.11 111.068 136.477C104.712 133.845 99.28 129.387 95.4582 123.667C91.6364 117.947 89.5965 111.223 89.5965 104.344L89.4375 99.375C89.4375 80.9259 96.7664 63.2324 109.812 50.1869C122.857 37.1414 140.551 29.8125 159 29.8125V49.6875C152.472 49.67 146.005 50.9467 139.974 53.4439C133.943 55.941 128.466 59.6091 123.861 64.236C122.071 66.0224 120.42 67.9426 118.922 69.9799C120.701 69.7016 122.519 69.5625 124.378 69.5625Z" fill="#F0F0F0"/>
</g>
<defs>
<clipPath id="clip0_1_29">
<rect width="159" height="159" fill="white"/>
</clipPath>
</defs>
</svg>
