<svg width="13" height="34" viewBox="0 0 13 34" fill="none" xmlns="http://www.w3.org/2000/svg">
<path d="M4.74408 25.1737V2.6106H0.523697V0H12.3223V2.6106H8.22512V25.1737H4.74408Z" fill="black"/>
<path d="M6.71564 34C4.94945 34 3.57346 33.6271 2.58768 32.8812C1.62243 32.1353 0.944708 31.1304 0.554502 29.8665C0.184834 28.6027 0 27.1938 0 25.6399V16.7514C0 15.0524 0.184834 13.571 0.554502 12.3071C0.944708 11.0433 1.62243 10.0695 2.58768 9.38574C3.57346 8.68129 4.94945 8.32907 6.71564 8.32907C8.27646 8.32907 9.50869 8.61913 10.4123 9.19927C11.3365 9.7794 11.9937 10.6082 12.3839 11.6856C12.7946 12.7629 13 14.0579 13 15.5704V17.5594H9.70379V15.7879C9.70379 14.8556 9.65245 14.0372 9.54976 13.3327C9.46761 12.6076 9.22117 12.0481 8.81043 11.6545C8.39968 11.2608 7.71169 11.064 6.74645 11.064C5.76066 11.064 5.04186 11.2815 4.59005 11.7166C4.13823 12.131 3.84044 12.7319 3.69668 13.5192C3.57346 14.2858 3.51185 15.1871 3.51185 16.223V26.1993C3.51185 27.4631 3.61453 28.468 3.81991 29.2139C4.02528 29.9391 4.36414 30.457 4.83649 30.7678C5.30885 31.0786 5.9455 31.234 6.74645 31.234C7.69115 31.234 8.36888 31.0268 8.77962 30.6124C9.19036 30.1773 9.44708 29.5868 9.54976 28.841C9.65245 28.0951 9.70379 27.2249 9.70379 26.2303V24.3656H13V26.2303C13 27.7636 12.8152 29.1207 12.4455 30.3016C12.0758 31.4619 11.4392 32.3736 10.5355 33.0366C9.63191 33.6789 8.35861 34 6.71564 34Z" fill="black"/>
</svg>
