<svg width="26" height="22" viewBox="0 0 26 22" fill="none" xmlns="http://www.w3.org/2000/svg">
<path d="M24.5142 1.28614C24.5142 1.28614 22.3573 2.56018 21.1581 2.92144C20.5143 2.18129 19.6588 1.65669 18.7073 1.41859C17.7557 1.1805 16.754 1.24039 15.8375 1.59017C14.9211 1.93995 14.1342 2.56275 13.5833 3.37432C13.0323 4.1859 12.7439 5.1471 12.7571 6.12792V7.19675C10.8788 7.24545 9.01756 6.82887 7.33922 5.98411C5.66088 5.13934 4.2175 3.89262 3.13765 2.35496C3.13765 2.35496 -1.13765 11.9744 8.48178 16.2497C6.28056 17.7439 3.65834 18.4931 1 18.3874C10.6194 23.7315 22.3765 18.3874 22.3765 6.09586C22.3765 5.79872 22.3466 5.50159 22.291 5.20873C23.3812 4.13349 24.5142 1.28614 24.5142 1.28614Z" stroke="#FF5C00" stroke-width="1.6" stroke-linecap="round" stroke-linejoin="round"/>
</svg>
