<svg width="59" height="60" viewBox="0 0 59 60" fill="none" xmlns="http://www.w3.org/2000/svg">
<path fill-rule="evenodd" clip-rule="evenodd" d="M0 29.8621C0 46.5067 13.2077 60 29.5 60C44.8004 60 57.3801 48.0999 58.8554 32.8653C59.0155 31.2125 57.6793 29.8621 56.05 29.8621C54.4207 29.8621 53.1193 31.2152 52.9189 32.8635C51.4727 44.7628 41.5391 53.9724 29.5 53.9724C16.4661 53.9724 5.9 43.1779 5.9 29.8621C5.9 18.2794 14.1859 8.87764 24.4268 6.41056C30.7746 4.88141 35.4 11.1577 35.4 17.807H29.5C22.983 17.807 17.7 23.2042 17.7 29.8621C17.7 36.52 22.983 41.9173 29.5 41.9173C36.017 41.9173 41.3 36.52 41.3 29.8621V23.8345H47.2C48.8293 23.8345 50.15 22.4816 50.15 20.8208C50.15 19.1599 48.8293 17.807 47.2 17.807H41.3C41.3 8.34498 35.5539 -1.13149 26.3525 0.110042C12.3384 2.0006 0 14.1844 0 29.8621ZM29.5 23.8345H35.4V29.8621C35.4 33.1911 32.7584 35.8897 29.5 35.8897C26.2416 35.8897 23.6 33.1911 23.6 29.8621C23.6 26.5333 26.2416 23.8345 29.5 23.8345ZM59 20.9055C59 19.2445 57.6793 17.8982 56.05 17.8982C54.4207 17.8982 53.1 19.2445 53.1 20.9055C53.1 22.5664 54.4207 23.9127 56.05 23.9127C57.6793 23.9127 59 22.5664 59 20.9055Z" fill="#FF5C00"/>
</svg>
